REM DIRINDEX 1\2,1\3,1\4
REM DIRNAME folder01,folder02,folder03,folder04
TITLE ""
FILE "DISC3Track36.mp3" MP3
  TRACK 01 AUDIO
    TITLE "0:"
    INDEX 01 00:00:00
  TRACK 02 AUDIO
    TITLE "4:cjc105_5980"
    INDEX 01 00:00:19
  TRACK 03 AUDIO
    TITLE "0:"
    INDEX 01 00:04:29
  TRACK 04 AUDIO
    TITLE "2:cjc105_5981"
    INDEX 01 00:04:74
  TRACK 05 AUDIO
    TITLE "3:cjc105_5982"
    INDEX 01 00:06:61
  TRACK 06 AUDIO
    TITLE "0:"
    INDEX 01 00:08:38
  TRACK 07 AUDIO
    TITLE "2:cjc105_5983"
    INDEX 01 00:08:62
  TRACK 08 AUDIO
    TITLE "3:cjc105_5984"
    INDEX 01 00:10:31
  TRACK 09 AUDIO
    TITLE "0:"
    INDEX 01 00:11:42
  TRACK 10 AUDIO
    TITLE "2:cjc105_5985"
    INDEX 01 00:11:58
  TRACK 11 AUDIO
    TITLE "3:cjc105_5986"
    INDEX 01 00:13:37
  TRACK 12 AUDIO
    TITLE "0:"
    INDEX 01 00:15:05
  TRACK 13 AUDIO
    TITLE "2:cjc105_5987"
    INDEX 01 00:15:25
  TRACK 14 AUDIO
    TITLE "3:cjc105_5988"
    INDEX 01 00:17:10
  TRACK 15 AUDIO
    TITLE "0:"
    INDEX 01 00:18:37
  TRACK 16 AUDIO
    TITLE "2:cjc105_5989"
    INDEX 01 00:18:58
  TRACK 17 AUDIO
    TITLE "3:cjc105_5990"
    INDEX 01 00:19:69
  TRACK 18 AUDIO
    TITLE "0:"
    INDEX 01 00:21:19
  TRACK 19 AUDIO
    TITLE "2:cjc105_5991"
    INDEX 01 00:21:35
  TRACK 20 AUDIO
    TITLE "3:cjc105_5992"
    INDEX 01 00:23:03
  TRACK 21 AUDIO
    TITLE "0:"
    INDEX 01 00:24:27
  TRACK 22 AUDIO
    TITLE "2:cjc105_5993"
    INDEX 01 00:24:47
  TRACK 23 AUDIO
    TITLE "3:cjc105_5994"
    INDEX 01 00:26:32
  TRACK 24 AUDIO
    TITLE "0:"
    INDEX 01 00:27:61
  TRACK 25 AUDIO
    TITLE "2:cjc105_5995"
    INDEX 01 00:28:10
  TRACK 26 AUDIO
    TITLE "3:cjc105_5996"
    INDEX 01 00:29:34
  TRACK 27 AUDIO
    TITLE "0:"
    INDEX 01 00:30:38
  TRACK 28 AUDIO
    TITLE "2:cjc105_5997"
    INDEX 01 00:30:59
  TRACK 29 AUDIO
    TITLE "3:cjc105_5998"
    INDEX 01 00:32:07
  TRACK 30 AUDIO
    TITLE "0:"
    INDEX 01 00:33:17
  TRACK 31 AUDIO
    TITLE "2:cjc105_5999"
    INDEX 01 00:33:34
  TRACK 32 AUDIO
    TITLE "3:cjc105_6000"
    INDEX 01 00:34:67
  TRACK 33 AUDIO
    TITLE "0:"
    INDEX 01 00:36:13
  TRACK 34 AUDIO
    TITLE "2:cjc105_6001"
    INDEX 01 00:36:33
  TRACK 35 AUDIO
    TITLE "3:cjc105_6002"
    INDEX 01 00:37:73
  TRACK 36 AUDIO
    TITLE "0:"
    INDEX 01 00:39:47
  TRACK 37 AUDIO
    TITLE "2:cjc105_6003"
    INDEX 01 00:39:70
  TRACK 38 AUDIO
    TITLE "3:cjc105_6004"
    INDEX 01 00:41:57
  TRACK 39 AUDIO
    TITLE "0:"
    INDEX 01 00:43:23
  TRACK 40 AUDIO
    TITLE "2:cjc105_6005"
    INDEX 01 00:43:46
  TRACK 41 AUDIO
    TITLE "3:cjc105_6006"
    INDEX 01 00:45:10
  TRACK 42 AUDIO
    TITLE "0:"
    INDEX 01 00:46:70
  TRACK 43 AUDIO
    TITLE "2:cjc105_6007"
    INDEX 01 00:47:17
  TRACK 44 AUDIO
    TITLE "3:cjc105_6008"
    INDEX 01 00:48:44
  TRACK 45 AUDIO
    TITLE "0:"
    INDEX 01 00:49:72
  TRACK 46 AUDIO
    TITLE "2:cjc105_6009"
    INDEX 01 00:50:15
  TRACK 47 AUDIO
    TITLE "3:cjc105_6010"
    INDEX 01 00:51:38
  TRACK 48 AUDIO
    TITLE "0:"
    INDEX 01 00:52:71
  TRACK 49 AUDIO
    TITLE "2:cjc105_6011"
    INDEX 01 00:53:15
  TRACK 50 AUDIO
    TITLE "3:cjc105_6012"
    INDEX 01 00:54:58
  TRACK 51 AUDIO
    TITLE "0:"
    INDEX 01 00:56:04
  TRACK 52 AUDIO
    TITLE "2:cjc105_6013"
    INDEX 01 00:56:27
  TRACK 53 AUDIO
    TITLE "3:cjc105_6014"
    INDEX 01 00:57:45
  TRACK 54 AUDIO
    TITLE "0:"
    INDEX 01 00:58:56
  TRACK 55 AUDIO
    TITLE "2:cjc105_6015"
    INDEX 01 00:58:71
  TRACK 56 AUDIO
    TITLE "3:cjc105_6016"
    INDEX 01 01:00:10
  TRACK 57 AUDIO
    TITLE "0:"
    INDEX 01 01:01:19
  TRACK 58 AUDIO
    TITLE "2:cjc105_6017"
    INDEX 01 01:01:36
  TRACK 59 AUDIO
    TITLE "3:cjc105_6018"
    INDEX 01 01:02:54
  TRACK 60 AUDIO
    TITLE "0:"
    INDEX 01 01:04:01
  TRACK 61 AUDIO
    TITLE "2:cjc105_6019"
    INDEX 01 01:04:15
  TRACK 62 AUDIO
    TITLE "3:cjc105_6020"
    INDEX 01 01:05:40
  TRACK 63 AUDIO
    TITLE "0:"
    INDEX 01 01:06:53
  TRACK 64 AUDIO
    TITLE "2:cjc105_6021"
    INDEX 01 01:07:00
  TRACK 65 AUDIO
    TITLE "3:cjc105_6022"
    INDEX 01 01:08:56
  TRACK 66 AUDIO
    TITLE "0:"
    INDEX 01 01:10:31
  TRACK 67 AUDIO
    TITLE "2:cjc105_6023"
    INDEX 01 01:10:53
  TRACK 68 AUDIO
    TITLE "3:cjc105_6024"
    INDEX 01 01:11:70
  TRACK 69 AUDIO
    TITLE "0:"
    INDEX 01 01:13:06
  TRACK 70 AUDIO
    TITLE "2:cjc105_6025"
    INDEX 01 01:13:30
  TRACK 71 AUDIO
    TITLE "3:cjc105_6026"
    INDEX 01 01:14:68
  TRACK 72 AUDIO
    TITLE "0:"
    INDEX 01 01:16:26
  TRACK 73 AUDIO
    TITLE "2:cjc105_6027"
    INDEX 01 01:16:50
  TRACK 74 AUDIO
    TITLE "3:cjc105_6028"
    INDEX 01 01:18:33
  TRACK 75 AUDIO
    TITLE "0:"
    INDEX 01 01:19:68
  TRACK 76 AUDIO
    TITLE "2:cjc105_6029"
    INDEX 01 01:20:10
  TRACK 77 AUDIO
    TITLE "3:cjc105_6030"
    INDEX 01 01:21:21
  TRACK 78 AUDIO
    TITLE "0:"
    INDEX 01 01:22:52
  TRACK 79 AUDIO
    TITLE "2:cjc105_6031"
    INDEX 01 01:22:72
  TRACK 80 AUDIO
    TITLE "3:cjc105_6032"
    INDEX 01 01:24:22
  TRACK 81 AUDIO
    TITLE "0:"
    INDEX 01 01:25:21
  TRACK 82 AUDIO
    TITLE "2:cjc105_6033"
    INDEX 01 01:25:37
  TRACK 83 AUDIO
    TITLE "3:cjc105_6034"
    INDEX 01 01:26:38
  TRACK 84 AUDIO
    TITLE "0:"
    INDEX 01 01:27:55
  TRACK 85 AUDIO
    TITLE "2:cjc105_6035"
    INDEX 01 01:27:71
  TRACK 86 AUDIO
    TITLE "3:cjc105_6036"
    INDEX 01 01:29:03
  TRACK 87 AUDIO
    TITLE "0:"
    INDEX 01 01:30:32
  TRACK 88 AUDIO
    TITLE "2:cjc105_6037"
    INDEX 01 01:30:48
  TRACK 89 AUDIO
    TITLE "3:cjc105_6038"
    INDEX 01 01:31:65
  TRACK 90 AUDIO
    TITLE "0:"
    INDEX 01 01:32:72
  TRACK 91 AUDIO
    TITLE "2:cjc105_6039"
    INDEX 01 01:33:13
  TRACK 92 AUDIO
    TITLE "3:cjc105_6040"
    INDEX 01 01:34:65
  TRACK 93 AUDIO
    TITLE "0:"
    INDEX 01 01:36:23
  TRACK 94 AUDIO
    TITLE "2:cjc105_6041"
    INDEX 01 01:36:45
  TRACK 95 AUDIO
    TITLE "3:cjc105_6042"
    INDEX 01 01:37:60
  TRACK 96 AUDIO
    TITLE "0:"
    INDEX 01 01:38:59
  TRACK 97 AUDIO
    TITLE "2:cjc105_6043"
    INDEX 01 01:39:02
  TRACK 98 AUDIO
    TITLE "3:cjc105_6044"
    INDEX 01 01:40:19
  TRACK 99 AUDIO
    TITLE "0:"
    INDEX 01 01:41:28
  TRACK 100 AUDIO
    TITLE "2:cjc105_6045"
    INDEX 01 01:41:48
  TRACK 101 AUDIO
    TITLE "3:cjc105_6046"
    INDEX 01 01:43:05
  TRACK 102 AUDIO
    TITLE "0:"
    INDEX 01 01:44:24
  TRACK 103 AUDIO
    TITLE "2:cjc105_6047"
    INDEX 01 01:44:42
  TRACK 104 AUDIO
    TITLE "3:cjc105_6048"
    INDEX 01 01:46:23
  TRACK 105 AUDIO
    TITLE "0:"
    INDEX 01 01:47:50
  TRACK 106 AUDIO
    TITLE "2:cjc105_6049"
    INDEX 01 01:47:70
  TRACK 107 AUDIO
    TITLE "3:cjc105_6050"
    INDEX 01 01:49:51
  TRACK 108 AUDIO
    TITLE "0:"
    INDEX 01 01:50:64
  TRACK 109 AUDIO
    TITLE "2:cjc105_6051"
    INDEX 01 01:51:03
  TRACK 110 AUDIO
    TITLE "3:cjc105_6052"
    INDEX 01 01:52:28
  TRACK 111 AUDIO
    TITLE "0:"
    INDEX 01 01:53:59
  TRACK 112 AUDIO
    TITLE "2:cjc105_6053"
    INDEX 01 01:54:05
  TRACK 113 AUDIO
    TITLE "3:cjc105_6054"
    INDEX 01 01:55:46
  TRACK 114 AUDIO
    TITLE "0:"
    INDEX 01 01:56:51
  TRACK 115 AUDIO
    TITLE "2:cjc105_6055"
    INDEX 01 01:56:67
  TRACK 116 AUDIO
    TITLE "3:cjc105_6056"
    INDEX 01 01:58:07
  TRACK 117 AUDIO
    TITLE "0:"
    INDEX 01 01:59:32
  TRACK 118 AUDIO
    TITLE "2:cjc105_6057"
    INDEX 01 01:59:50
  TRACK 119 AUDIO
    TITLE "3:cjc105_6058"
    INDEX 01 02:00:59
  TRACK 120 AUDIO
    TITLE "0:"
    INDEX 01 02:01:62
  TRACK 121 AUDIO
    TITLE "2:cjc105_6059"
    INDEX 01 02:02:05
  TRACK 122 AUDIO
    TITLE "3:cjc105_6060"
    INDEX 01 02:03:67
  TRACK 123 AUDIO
    TITLE "0:"
    INDEX 01 02:05:38
  TRACK 124 AUDIO
    TITLE "2:cjc105_6061"
    INDEX 01 02:05:52
  TRACK 125 AUDIO
    TITLE "3:cjc105_6062"
    INDEX 01 02:06:59
  TRACK 126 AUDIO
    TITLE "0:"
    INDEX 01 02:07:67
  TRACK 127 AUDIO
    TITLE "2:cjc105_6063"
    INDEX 01 02:08:15
  TRACK 128 AUDIO
    TITLE "3:cjc105_6064"
    INDEX 01 02:09:11
  TRACK 129 AUDIO
    TITLE "0:"
    INDEX 01 02:10:42
  TRACK 130 AUDIO
    TITLE "2:cjc105_6065"
    INDEX 01 02:10:63
  TRACK 131 AUDIO
    TITLE "3:cjc105_6066"
    INDEX 01 02:12:25
  TRACK 132 AUDIO
    TITLE "0:"
    INDEX 01 02:13:46
  TRACK 133 AUDIO
    TITLE "2:cjc105_6067"
    INDEX 01 02:13:67
  TRACK 134 AUDIO
    TITLE "3:cjc105_6068"
    INDEX 01 02:15:15
  TRACK 135 AUDIO
    TITLE "0:"
    INDEX 01 02:16:32
  TRACK 136 AUDIO
    TITLE "2:cjc105_6069"
    INDEX 01 02:16:52
  TRACK 137 AUDIO
    TITLE "3:cjc105_6070"
    INDEX 01 02:17:69
  TRACK 138 AUDIO
    TITLE "0:"
    INDEX 01 02:19:19
  TRACK 139 AUDIO
    TITLE "2:cjc105_6071"
    INDEX 01 02:19:42
  TRACK 140 AUDIO
    TITLE "3:cjc105_6072"
    INDEX 01 02:21:00
  TRACK 141 AUDIO
    TITLE "0:"
    INDEX 01 02:22:02
  TRACK 142 AUDIO
    TITLE "2:cjc105_6073"
    INDEX 01 02:22:25
  TRACK 143 AUDIO
    TITLE "3:cjc105_6074"
    INDEX 01 02:23:38
  TRACK 144 AUDIO
    TITLE "0:"
    INDEX 01 02:24:51
  TRACK 145 AUDIO
    TITLE "2:cjc105_6075"
    INDEX 01 02:24:67
  TRACK 146 AUDIO
    TITLE "3:cjc105_6076"
    INDEX 01 02:25:57
  TRACK 147 AUDIO
    TITLE "0:"
    INDEX 01 02:26:56
  TRACK 148 AUDIO
    TITLE "2:cjc105_6077"
    INDEX 01 02:27:03
  TRACK 149 AUDIO
    TITLE "3:cjc105_6078"
    INDEX 01 02:28:39
  TRACK 150 AUDIO
    TITLE "0:"
    INDEX 01 02:29:72
  TRACK 151 AUDIO
    TITLE "2:cjc105_6079"
    INDEX 01 02:30:13
  TRACK 152 AUDIO
    TITLE "3:cjc105_6080"
    INDEX 01 02:31:30
  TRACK 153 AUDIO
    TITLE "0:"
    INDEX 01 02:32:43
  TRACK 154 AUDIO
    TITLE "2:cjc105_6081"
    INDEX 01 02:32:65
  TRACK 155 AUDIO
    TITLE "3:cjc105_6082"
    INDEX 01 02:33:70
  TRACK 156 AUDIO
    TITLE "0:"
    INDEX 01 02:35:08
  TRACK 157 AUDIO
    TITLE "2:cjc105_6083"
    INDEX 01 02:35:26
  TRACK 158 AUDIO
    TITLE "3:cjc105_6084"
    INDEX 01 02:36:72
  TRACK 159 AUDIO
    TITLE "0:"
    INDEX 01 02:38:46
  TRACK 160 AUDIO
    TITLE "2:cjc105_6085"
    INDEX 01 02:38:67
  TRACK 161 AUDIO
    TITLE "3:cjc105_6086"
    INDEX 01 02:40:47
  TRACK 162 AUDIO
    TITLE "0:"
    INDEX 01 02:42:14
  TRACK 163 AUDIO
    TITLE "2:cjc105_6087"
    INDEX 01 02:42:40
  TRACK 164 AUDIO
    TITLE "3:cjc105_6088"
    INDEX 01 02:43:43
  TRACK 165 AUDIO
    TITLE "0:"
    INDEX 01 02:44:48
  TRACK 166 AUDIO
    TITLE "2:cjc105_6089"
    INDEX 01 02:44:70
  TRACK 167 AUDIO
    TITLE "3:cjc105_6090"
    INDEX 01 02:46:37
  TRACK 168 AUDIO
    TITLE "0:"
    INDEX 01 02:47:43
  TRACK 169 AUDIO
    TITLE "2:cjc105_6091"
    INDEX 01 02:47:64
  TRACK 170 AUDIO
    TITLE "3:cjc105_6092"
    INDEX 01 02:49:00
  TRACK 171 AUDIO
    TITLE "0:"
    INDEX 01 02:50:14
  TRACK 172 AUDIO
    TITLE "2:cjc105_6093"
    INDEX 01 02:50:35
  TRACK 173 AUDIO
    TITLE "3:cjc105_6094"
    INDEX 01 02:52:03
  TRACK 174 AUDIO
    TITLE "0:"
    INDEX 01 02:53:14
  TRACK 175 AUDIO
    TITLE "2:cjc105_6095"
    INDEX 01 02:53:37
  TRACK 176 AUDIO
    TITLE "3:cjc105_6096"
    INDEX 01 02:55:11
  TRACK 177 AUDIO
    TITLE "0:"
    INDEX 01 02:56:48
  TRACK 178 AUDIO
    TITLE "2:cjc105_6097"
    INDEX 01 02:56:71
  TRACK 179 AUDIO
    TITLE "3:cjc105_6098"
    INDEX 01 02:58:50
  TRACK 180 AUDIO
    TITLE "0:"
    INDEX 01 02:59:73
  TRACK 181 AUDIO
    TITLE "2:cjc105_6099"
    INDEX 01 03:00:24
  TRACK 182 AUDIO
    TITLE "3:cjc105_6100"
    INDEX 01 03:01:45
  TRACK 183 AUDIO
    TITLE "0:"
    INDEX 01 03:02:68
  TRACK 184 AUDIO
    TITLE "2:cjc105_6101"
    INDEX 01 03:03:18
  TRACK 185 AUDIO
    TITLE "3:cjc105_6102"
    INDEX 01 03:04:74
  TRACK 186 AUDIO
    TITLE "0:"
    INDEX 01 03:06:32
  TRACK 187 AUDIO
    TITLE "2:cjc105_6103"
    INDEX 01 03:06:52
  TRACK 188 AUDIO
    TITLE "3:cjc105_6104"
    INDEX 01 03:08:51
  TRACK 189 AUDIO
    TITLE "0:"
    INDEX 01 03:10:34
  TRACK 190 AUDIO
    TITLE "2:cjc105_6105"
    INDEX 01 03:10:59
  TRACK 191 AUDIO
    TITLE "3:cjc105_6106"
    INDEX 01 03:11:55
  TRACK 192 AUDIO
    TITLE "0:"
    INDEX 01 03:12:52
  TRACK 193 AUDIO
    TITLE "2:cjc105_6107"
    INDEX 01 03:12:70
  TRACK 194 AUDIO
    TITLE "3:cjc105_6108"
    INDEX 01 03:14:32
  TRACK 195 AUDIO
    TITLE "0:"
    INDEX 01 03:16:05
  TRACK 196 AUDIO
    TITLE "2:cjc105_6109"
    INDEX 01 03:16:23
  TRACK 197 AUDIO
    TITLE "3:cjc105_6110"
    INDEX 01 03:17:44
  TRACK 198 AUDIO
    TITLE "0:"
    INDEX 01 03:19:00
